<mxfile host="app.diagrams.net" modified="2022-08-15T13:30:47.079Z" agent="5.0 (Macintosh; Intel Mac OS X 10_15_7) AppleWebKit/537.36 (KHTML, like Gecko) Chrome/104.0.0.0 Safari/537.36" etag="YqzffGVH3ZNbgSfd3fNG" version="20.2.3" type="github">
  <diagram id="X_E1gEP_y8ChVFw3dgpw" name="Page-1">
    <mxGraphModel dx="1261" dy="861" grid="1" gridSize="10" guides="1" tooltips="1" connect="1" arrows="1" fold="1" page="1" pageScale="1" pageWidth="850" pageHeight="1100" math="0" shadow="0">
      <root>
        <mxCell id="0" />
        <mxCell id="1" parent="0" />
        <mxCell id="-BknDtUEzY0lS1GajrPw-25" style="edgeStyle=orthogonalEdgeStyle;rounded=0;orthogonalLoop=1;jettySize=auto;html=1;exitX=1;exitY=0.5;exitDx=0;exitDy=0;" parent="1" source="-BknDtUEzY0lS1GajrPw-3" target="-BknDtUEzY0lS1GajrPw-4" edge="1">
          <mxGeometry relative="1" as="geometry" />
        </mxCell>
        <mxCell id="-BknDtUEzY0lS1GajrPw-26" style="edgeStyle=orthogonalEdgeStyle;rounded=0;orthogonalLoop=1;jettySize=auto;html=1;exitX=0;exitY=0.25;exitDx=0;exitDy=0;entryX=0.5;entryY=0;entryDx=0;entryDy=0;" parent="1" source="-BknDtUEzY0lS1GajrPw-3" target="-BknDtUEzY0lS1GajrPw-7" edge="1">
          <mxGeometry relative="1" as="geometry">
            <mxPoint x="100" y="235" as="targetPoint" />
            <Array as="points">
              <mxPoint x="340" y="250" />
              <mxPoint x="110" y="250" />
            </Array>
          </mxGeometry>
        </mxCell>
        <mxCell id="-BknDtUEzY0lS1GajrPw-3" value="App.js" style="rounded=1;whiteSpace=wrap;html=1;" parent="1" vertex="1">
          <mxGeometry x="340" y="220" width="120" height="60" as="geometry" />
        </mxCell>
        <mxCell id="-BknDtUEzY0lS1GajrPw-4" value="Scss" style="rounded=1;whiteSpace=wrap;html=1;" parent="1" vertex="1">
          <mxGeometry x="650" y="310" width="120" height="60" as="geometry" />
        </mxCell>
        <mxCell id="-BknDtUEzY0lS1GajrPw-5" value="Services" style="rounded=1;whiteSpace=wrap;html=1;" parent="1" vertex="1">
          <mxGeometry x="440" y="310" width="120" height="60" as="geometry" />
        </mxCell>
        <mxCell id="-BknDtUEzY0lS1GajrPw-6" value="Screens" style="rounded=1;whiteSpace=wrap;html=1;" parent="1" vertex="1">
          <mxGeometry x="240" y="310" width="120" height="60" as="geometry" />
        </mxCell>
        <mxCell id="-BknDtUEzY0lS1GajrPw-7" value="Components" style="rounded=1;whiteSpace=wrap;html=1;" parent="1" vertex="1">
          <mxGeometry x="50" y="310" width="120" height="60" as="geometry" />
        </mxCell>
        <mxCell id="-BknDtUEzY0lS1GajrPw-8" value="ApiCall.js" style="rounded=1;whiteSpace=wrap;html=1;" parent="1" vertex="1">
          <mxGeometry x="440" y="410" width="120" height="60" as="geometry" />
        </mxCell>
        <mxCell id="-BknDtUEzY0lS1GajrPw-9" value="Header.js" style="rounded=1;whiteSpace=wrap;html=1;" parent="1" vertex="1">
          <mxGeometry x="50" y="410" width="120" height="60" as="geometry" />
        </mxCell>
        <mxCell id="-BknDtUEzY0lS1GajrPw-10" value="TopRatedMovies.js" style="rounded=1;whiteSpace=wrap;html=1;" parent="1" vertex="1">
          <mxGeometry x="50" y="610" width="120" height="60" as="geometry" />
        </mxCell>
        <mxCell id="-BknDtUEzY0lS1GajrPw-11" value="Movie Description.js" style="rounded=1;whiteSpace=wrap;html=1;" parent="1" vertex="1">
          <mxGeometry x="240" y="790" width="120" height="30" as="geometry" />
        </mxCell>
        <mxCell id="-BknDtUEzY0lS1GajrPw-12" value="_breakpoint.scss" style="rounded=1;whiteSpace=wrap;html=1;" parent="1" vertex="1">
          <mxGeometry x="650" y="570" width="120" height="60" as="geometry" />
        </mxCell>
        <mxCell id="-BknDtUEzY0lS1GajrPw-13" value="_variables.scss" style="rounded=1;whiteSpace=wrap;html=1;" parent="1" vertex="1">
          <mxGeometry x="650" y="490" width="120" height="60" as="geometry" />
        </mxCell>
        <mxCell id="-BknDtUEzY0lS1GajrPw-14" value="_mixin.scss" style="rounded=1;whiteSpace=wrap;html=1;" parent="1" vertex="1">
          <mxGeometry x="650" y="410" width="120" height="60" as="geometry" />
        </mxCell>
        <mxCell id="-BknDtUEzY0lS1GajrPw-15" value="NoMatch.js" style="rounded=1;whiteSpace=wrap;html=1;" parent="1" vertex="1">
          <mxGeometry x="240" y="460" width="120" height="30" as="geometry" />
        </mxCell>
        <mxCell id="-BknDtUEzY0lS1GajrPw-16" value="Movies.js" style="rounded=1;whiteSpace=wrap;html=1;" parent="1" vertex="1">
          <mxGeometry x="240" y="420" width="120" height="30" as="geometry" />
        </mxCell>
        <mxCell id="-BknDtUEzY0lS1GajrPw-17" value="Home.js" style="rounded=1;whiteSpace=wrap;html=1;" parent="1" vertex="1">
          <mxGeometry x="240" y="380" width="120" height="30" as="geometry" />
        </mxCell>
        <mxCell id="-BknDtUEzY0lS1GajrPw-18" value="TVShowDetails.js" style="rounded=1;whiteSpace=wrap;html=1;" parent="1" vertex="1">
          <mxGeometry x="240" y="540" width="120" height="30" as="geometry" />
        </mxCell>
        <mxCell id="-BknDtUEzY0lS1GajrPw-19" value="TVShows.js" style="rounded=1;whiteSpace=wrap;html=1;" parent="1" vertex="1">
          <mxGeometry x="240" y="500" width="120" height="30" as="geometry" />
        </mxCell>
        <mxCell id="-BknDtUEzY0lS1GajrPw-20" value="TrendingMovies.js" style="rounded=1;whiteSpace=wrap;html=1;" parent="1" vertex="1">
          <mxGeometry x="50" y="510" width="120" height="60" as="geometry" />
        </mxCell>
        <mxCell id="-BknDtUEzY0lS1GajrPw-21" value="TrendingTVShows.js&lt;br&gt;" style="rounded=1;whiteSpace=wrap;html=1;" parent="1" vertex="1">
          <mxGeometry x="50" y="710" width="120" height="60" as="geometry" />
        </mxCell>
        <mxCell id="-BknDtUEzY0lS1GajrPw-22" value="TopRatedTVShows.js" style="rounded=1;whiteSpace=wrap;html=1;" parent="1" vertex="1">
          <mxGeometry x="50" y="800" width="120" height="60" as="geometry" />
        </mxCell>
        <mxCell id="-BknDtUEzY0lS1GajrPw-23" value="MarvelComics.js" style="rounded=1;whiteSpace=wrap;html=1;" parent="1" vertex="1">
          <mxGeometry x="50" y="890" width="120" height="60" as="geometry" />
        </mxCell>
        <mxCell id="q9OSOBEIp5PQEKqn7YYh-1" value="ApiCallTV.js" style="rounded=1;whiteSpace=wrap;html=1;" vertex="1" parent="1">
          <mxGeometry x="440" y="500" width="120" height="60" as="geometry" />
        </mxCell>
        <mxCell id="q9OSOBEIp5PQEKqn7YYh-2" value="" style="endArrow=none;html=1;rounded=0;" edge="1" parent="1">
          <mxGeometry width="50" height="50" relative="1" as="geometry">
            <mxPoint x="410" y="530" as="sourcePoint" />
            <mxPoint x="410" y="330" as="targetPoint" />
          </mxGeometry>
        </mxCell>
        <mxCell id="q9OSOBEIp5PQEKqn7YYh-3" value="" style="endArrow=none;html=1;rounded=0;" edge="1" parent="1">
          <mxGeometry width="50" height="50" relative="1" as="geometry">
            <mxPoint x="20" y="920" as="sourcePoint" />
            <mxPoint x="20" y="340" as="targetPoint" />
          </mxGeometry>
        </mxCell>
        <mxCell id="q9OSOBEIp5PQEKqn7YYh-4" value="" style="endArrow=none;html=1;rounded=0;" edge="1" parent="1">
          <mxGeometry width="50" height="50" relative="1" as="geometry">
            <mxPoint x="210" y="800" as="sourcePoint" />
            <mxPoint x="210" y="340" as="targetPoint" />
          </mxGeometry>
        </mxCell>
        <mxCell id="q9OSOBEIp5PQEKqn7YYh-5" value="" style="endArrow=none;html=1;rounded=0;" edge="1" parent="1">
          <mxGeometry width="50" height="50" relative="1" as="geometry">
            <mxPoint x="620" y="600" as="sourcePoint" />
            <mxPoint x="620" y="340" as="targetPoint" />
          </mxGeometry>
        </mxCell>
        <mxCell id="q9OSOBEIp5PQEKqn7YYh-10" value="" style="endArrow=classic;html=1;rounded=0;" edge="1" parent="1">
          <mxGeometry width="50" height="50" relative="1" as="geometry">
            <mxPoint x="20" y="439.5" as="sourcePoint" />
            <mxPoint x="50" y="440" as="targetPoint" />
          </mxGeometry>
        </mxCell>
        <mxCell id="q9OSOBEIp5PQEKqn7YYh-12" value="" style="endArrow=classic;html=1;rounded=0;" edge="1" parent="1">
          <mxGeometry width="50" height="50" relative="1" as="geometry">
            <mxPoint x="620" y="519.5" as="sourcePoint" />
            <mxPoint x="650" y="520" as="targetPoint" />
          </mxGeometry>
        </mxCell>
        <mxCell id="q9OSOBEIp5PQEKqn7YYh-13" value="" style="endArrow=classic;html=1;rounded=0;" edge="1" parent="1">
          <mxGeometry width="50" height="50" relative="1" as="geometry">
            <mxPoint x="620" y="599.5" as="sourcePoint" />
            <mxPoint x="650" y="600" as="targetPoint" />
          </mxGeometry>
        </mxCell>
        <mxCell id="q9OSOBEIp5PQEKqn7YYh-15" value="" style="endArrow=classic;html=1;rounded=0;" edge="1" parent="1">
          <mxGeometry width="50" height="50" relative="1" as="geometry">
            <mxPoint x="620" y="439.5" as="sourcePoint" />
            <mxPoint x="650" y="440" as="targetPoint" />
          </mxGeometry>
        </mxCell>
        <mxCell id="q9OSOBEIp5PQEKqn7YYh-17" value="" style="endArrow=classic;html=1;rounded=0;" edge="1" parent="1">
          <mxGeometry width="50" height="50" relative="1" as="geometry">
            <mxPoint x="20" y="539.5" as="sourcePoint" />
            <mxPoint x="50" y="540" as="targetPoint" />
          </mxGeometry>
        </mxCell>
        <mxCell id="q9OSOBEIp5PQEKqn7YYh-18" value="" style="endArrow=classic;html=1;rounded=0;" edge="1" parent="1">
          <mxGeometry width="50" height="50" relative="1" as="geometry">
            <mxPoint x="20" y="639.5" as="sourcePoint" />
            <mxPoint x="50" y="640" as="targetPoint" />
            <Array as="points">
              <mxPoint x="40" y="640" />
            </Array>
          </mxGeometry>
        </mxCell>
        <mxCell id="q9OSOBEIp5PQEKqn7YYh-19" value="" style="endArrow=classic;html=1;rounded=0;" edge="1" parent="1">
          <mxGeometry width="50" height="50" relative="1" as="geometry">
            <mxPoint x="20" y="739.5" as="sourcePoint" />
            <mxPoint x="50" y="740" as="targetPoint" />
          </mxGeometry>
        </mxCell>
        <mxCell id="q9OSOBEIp5PQEKqn7YYh-20" value="" style="endArrow=classic;html=1;rounded=0;" edge="1" parent="1">
          <mxGeometry width="50" height="50" relative="1" as="geometry">
            <mxPoint x="20" y="829.5" as="sourcePoint" />
            <mxPoint x="50" y="830" as="targetPoint" />
          </mxGeometry>
        </mxCell>
        <mxCell id="q9OSOBEIp5PQEKqn7YYh-21" value="" style="endArrow=classic;html=1;rounded=0;" edge="1" parent="1">
          <mxGeometry width="50" height="50" relative="1" as="geometry">
            <mxPoint x="20" y="919.5" as="sourcePoint" />
            <mxPoint x="50" y="920" as="targetPoint" />
          </mxGeometry>
        </mxCell>
        <mxCell id="q9OSOBEIp5PQEKqn7YYh-22" value="" style="endArrow=classic;html=1;rounded=0;" edge="1" parent="1">
          <mxGeometry width="50" height="50" relative="1" as="geometry">
            <mxPoint x="210" y="439.5" as="sourcePoint" />
            <mxPoint x="240" y="440" as="targetPoint" />
          </mxGeometry>
        </mxCell>
        <mxCell id="q9OSOBEIp5PQEKqn7YYh-23" value="" style="endArrow=classic;html=1;rounded=0;" edge="1" parent="1">
          <mxGeometry width="50" height="50" relative="1" as="geometry">
            <mxPoint x="210" y="469" as="sourcePoint" />
            <mxPoint x="240" y="469.5" as="targetPoint" />
          </mxGeometry>
        </mxCell>
        <mxCell id="q9OSOBEIp5PQEKqn7YYh-24" value="" style="endArrow=classic;html=1;rounded=0;" edge="1" parent="1">
          <mxGeometry width="50" height="50" relative="1" as="geometry">
            <mxPoint x="210" y="514.5" as="sourcePoint" />
            <mxPoint x="240" y="515" as="targetPoint" />
          </mxGeometry>
        </mxCell>
        <mxCell id="q9OSOBEIp5PQEKqn7YYh-25" value="" style="endArrow=classic;html=1;rounded=0;" edge="1" parent="1">
          <mxGeometry width="50" height="50" relative="1" as="geometry">
            <mxPoint x="210" y="554.5" as="sourcePoint" />
            <mxPoint x="240" y="555" as="targetPoint" />
          </mxGeometry>
        </mxCell>
        <mxCell id="q9OSOBEIp5PQEKqn7YYh-26" value="" style="endArrow=classic;html=1;rounded=0;" edge="1" parent="1">
          <mxGeometry width="50" height="50" relative="1" as="geometry">
            <mxPoint x="210" y="599.5" as="sourcePoint" />
            <mxPoint x="240" y="600" as="targetPoint" />
          </mxGeometry>
        </mxCell>
        <mxCell id="q9OSOBEIp5PQEKqn7YYh-27" value="" style="endArrow=classic;html=1;rounded=0;" edge="1" parent="1">
          <mxGeometry width="50" height="50" relative="1" as="geometry">
            <mxPoint x="210" y="800" as="sourcePoint" />
            <mxPoint x="240" y="800.5" as="targetPoint" />
          </mxGeometry>
        </mxCell>
        <mxCell id="q9OSOBEIp5PQEKqn7YYh-28" value="" style="endArrow=classic;html=1;rounded=0;" edge="1" parent="1">
          <mxGeometry width="50" height="50" relative="1" as="geometry">
            <mxPoint x="410" y="439.5" as="sourcePoint" />
            <mxPoint x="440" y="440" as="targetPoint" />
          </mxGeometry>
        </mxCell>
        <mxCell id="q9OSOBEIp5PQEKqn7YYh-29" value="" style="endArrow=classic;html=1;rounded=0;" edge="1" parent="1">
          <mxGeometry width="50" height="50" relative="1" as="geometry">
            <mxPoint x="210" y="394.5" as="sourcePoint" />
            <mxPoint x="240" y="395" as="targetPoint" />
          </mxGeometry>
        </mxCell>
        <mxCell id="q9OSOBEIp5PQEKqn7YYh-30" value="" style="endArrow=classic;html=1;rounded=0;" edge="1" parent="1">
          <mxGeometry width="50" height="50" relative="1" as="geometry">
            <mxPoint x="410" y="529.5" as="sourcePoint" />
            <mxPoint x="440" y="530" as="targetPoint" />
          </mxGeometry>
        </mxCell>
        <mxCell id="q9OSOBEIp5PQEKqn7YYh-39" value="" style="endArrow=none;html=1;rounded=0;" edge="1" parent="1">
          <mxGeometry width="50" height="50" relative="1" as="geometry">
            <mxPoint x="20" y="339.5" as="sourcePoint" />
            <mxPoint x="50" y="339.5" as="targetPoint" />
          </mxGeometry>
        </mxCell>
        <mxCell id="q9OSOBEIp5PQEKqn7YYh-40" value="" style="endArrow=none;html=1;rounded=0;" edge="1" parent="1">
          <mxGeometry width="50" height="50" relative="1" as="geometry">
            <mxPoint x="210" y="339.5" as="sourcePoint" />
            <mxPoint x="240" y="339.5" as="targetPoint" />
          </mxGeometry>
        </mxCell>
        <mxCell id="q9OSOBEIp5PQEKqn7YYh-41" value="" style="endArrow=none;html=1;rounded=0;" edge="1" parent="1">
          <mxGeometry width="50" height="50" relative="1" as="geometry">
            <mxPoint x="410" y="330" as="sourcePoint" />
            <mxPoint x="440" y="330" as="targetPoint" />
          </mxGeometry>
        </mxCell>
        <mxCell id="q9OSOBEIp5PQEKqn7YYh-42" value="" style="endArrow=none;html=1;rounded=0;" edge="1" parent="1">
          <mxGeometry width="50" height="50" relative="1" as="geometry">
            <mxPoint x="620" y="339.5" as="sourcePoint" />
            <mxPoint x="650" y="339.5" as="targetPoint" />
          </mxGeometry>
        </mxCell>
        <mxCell id="q9OSOBEIp5PQEKqn7YYh-43" value="MovieDetails.js" style="rounded=1;whiteSpace=wrap;html=1;" vertex="1" parent="1">
          <mxGeometry x="240" y="585" width="120" height="30" as="geometry" />
        </mxCell>
        <mxCell id="q9OSOBEIp5PQEKqn7YYh-44" value="Moviefilter.js" style="rounded=1;whiteSpace=wrap;html=1;" vertex="1" parent="1">
          <mxGeometry x="240" y="625" width="120" height="30" as="geometry" />
        </mxCell>
        <mxCell id="q9OSOBEIp5PQEKqn7YYh-45" value="Moviefilterlist.js" style="rounded=1;whiteSpace=wrap;html=1;" vertex="1" parent="1">
          <mxGeometry x="240" y="670" width="120" height="30" as="geometry" />
        </mxCell>
        <mxCell id="q9OSOBEIp5PQEKqn7YYh-46" value="Moviesmiddle.js" style="rounded=1;whiteSpace=wrap;html=1;" vertex="1" parent="1">
          <mxGeometry x="240" y="710" width="120" height="30" as="geometry" />
        </mxCell>
        <mxCell id="q9OSOBEIp5PQEKqn7YYh-47" value="TVShowDetails.js" style="rounded=1;whiteSpace=wrap;html=1;" vertex="1" parent="1">
          <mxGeometry x="240" y="750" width="120" height="30" as="geometry" />
        </mxCell>
        <mxCell id="q9OSOBEIp5PQEKqn7YYh-50" value="" style="endArrow=classic;html=1;rounded=0;" edge="1" parent="1">
          <mxGeometry width="50" height="50" relative="1" as="geometry">
            <mxPoint x="210" y="639.5" as="sourcePoint" />
            <mxPoint x="240" y="640" as="targetPoint" />
          </mxGeometry>
        </mxCell>
        <mxCell id="q9OSOBEIp5PQEKqn7YYh-51" value="" style="endArrow=classic;html=1;rounded=0;" edge="1" parent="1">
          <mxGeometry width="50" height="50" relative="1" as="geometry">
            <mxPoint x="210" y="684.5" as="sourcePoint" />
            <mxPoint x="240" y="685" as="targetPoint" />
          </mxGeometry>
        </mxCell>
        <mxCell id="q9OSOBEIp5PQEKqn7YYh-52" value="" style="endArrow=classic;html=1;rounded=0;" edge="1" parent="1">
          <mxGeometry width="50" height="50" relative="1" as="geometry">
            <mxPoint x="210" y="724.5" as="sourcePoint" />
            <mxPoint x="240" y="725" as="targetPoint" />
          </mxGeometry>
        </mxCell>
        <mxCell id="q9OSOBEIp5PQEKqn7YYh-53" value="" style="endArrow=classic;html=1;rounded=0;" edge="1" parent="1">
          <mxGeometry width="50" height="50" relative="1" as="geometry">
            <mxPoint x="210" y="764.5" as="sourcePoint" />
            <mxPoint x="240" y="765" as="targetPoint" />
          </mxGeometry>
        </mxCell>
        <mxCell id="q9OSOBEIp5PQEKqn7YYh-54" value="" style="endArrow=classic;html=1;rounded=0;" edge="1" parent="1">
          <mxGeometry width="50" height="50" relative="1" as="geometry">
            <mxPoint x="290" y="250" as="sourcePoint" />
            <mxPoint x="290" y="310" as="targetPoint" />
          </mxGeometry>
        </mxCell>
        <mxCell id="q9OSOBEIp5PQEKqn7YYh-55" value="" style="endArrow=classic;html=1;rounded=0;" edge="1" parent="1">
          <mxGeometry width="50" height="50" relative="1" as="geometry">
            <mxPoint x="499.33000000000004" y="250" as="sourcePoint" />
            <mxPoint x="499.33000000000004" y="310" as="targetPoint" />
          </mxGeometry>
        </mxCell>
      </root>
    </mxGraphModel>
  </diagram>
</mxfile>
